<?xml version="1.0" encoding="UTF-8" standalone="no"?>
<!DOCTYPE svg PUBLIC "-//W3C//DTD SVG 1.1//EN" "http://www.w3.org/Graphics/SVG/1.1/DTD/svg11.dtd">
<svg width="100%" height="100%" viewBox="0 0 100 100" version="1.1" xmlns="http://www.w3.org/2000/svg" xmlns:xlink="http://www.w3.org/1999/xlink" xml:space="preserve" xmlns:serif="http://www.serif.com/" style="fill-rule:evenodd;clip-rule:evenodd;stroke-linejoin:round;stroke-miterlimit:2;">
    <g transform="matrix(0.0861318,-0.0672745,0.0672745,0.0861318,-38.9069,61.3108)">
        <path d="M269,498L818,706C818,706 832.774,749.743 912,754C998.207,758.632 1055,634.556 1067,576C1082.94,498.236 1078.42,376.716 1060,318C1041.58,259.284 1003.33,209.089 953,201C917.056,195.223 871.707,207.434 845,231L281,377C281,377 238.448,352.14 212,392C186.257,430.798 199.476,473.645 226,494C246.246,509.537 269,498 269,498Z" style="fill:#cf093f;"/>
    </g>
    <g transform="matrix(0.0861318,-0.0672745,0.0672745,0.0861318,-38.9069,61.3108)">
        <path d="M530,594C530,594 524.254,662.058 561,680C597.746,697.942 644.48,712.158 668,711C691.52,709.842 705.433,693.781 720,667L704,660C704,660 703.087,680.229 680,692C656.608,703.926 599.438,676.961 574,665C548.562,653.039 546.468,622.886 547,599C539.356,596.777 530,594 530,594Z" style="fill:#cf093f;"/>
    </g>
    <g transform="matrix(0.0734238,-0.0539893,0.0608375,0.0827372,-23.9472,50.2872)">
        <ellipse cx="921.5" cy="476" rx="141.5" ry="257" style="fill:white;"/>
    </g>
</svg>
